<svg width="42" height="42" viewBox="0 0 42 42" fill="none" xmlns="http://www.w3.org/2000/svg">
<path opacity="0.2" fill-rule="evenodd" clip-rule="evenodd" d="M21 42C32.598 42 42 32.598 42 21C42 9.40202 32.598 0 21 0C9.40202 0 0 9.40202 0 21C0 32.598 9.40202 42 21 42ZM29.1373 14.1567L22.827 29.9324C22.5066 30.7336 21.39 30.78 21.0041 30.0083L18.5385 25.0769L25 17L16.9308 23.4553L11.9729 20.9296C11.2059 20.5389 11.2582 19.426 12.0585 19.1089L27.8405 12.8557C28.6564 12.5324 29.4633 13.3419 29.1373 14.1567Z" fill="#AFBDCC"/>
</svg>
