<svg width="142" height="83" viewBox="0 0 142 83" fill="none" xmlns="http://www.w3.org/2000/svg">
    <path d="M56 55C56 70.464 43.464 83 28 83C12.536 83 0 70.464 0 55C0 39.536 12.536 27 28 27C43.464 27 56 39.536 56 55Z" fill="#1AA0ED"/>
    <path d="M97 36C97 55.8823 80.8822 72 61 72C41.1177 72 25 55.8823 25 36C25 16.1177 41.1177 0 61 0C80.8822 0 97 16.1177 97 36Z" fill="#1AA0ED"/>
    <path d="M122 31C122 44.2548 111.255 55 98 55C84.7452 55 74 44.2548 74 31C74 17.7452 84.7452 7 98 7C111.255 7 122 17.7452 122 31Z" fill="#1AA0ED"/>
    <path d="M142 55C142 70.464 129.464 83 114 83C98.536 83 86 70.464 86 55C86 39.536 98.536 27 114 27C129.464 27 142 39.536 142 55Z" fill="#1AA0ED"/>
    <path d="M26 55H115V83H26V55Z" fill="#1AA0ED"/>
    <path d="M41 41.6813V60.5751C41 61.1274 41.4477 61.5751 42 61.5751H44.7934C45.3457 61.5751 45.7934 61.1274 45.7934 60.5751V54.8242C45.7934 54.2719 46.2411 53.8242 46.7934 53.8242H48.595C49.1473 53.8242 49.595 54.2719 49.595 54.8242V61.0806C49.595 61.6329 50.0428 62.0806 50.595 62.0806H55.6215C55.89 62.0806 56.1473 62.1886 56.3353 62.3803L63.5159 69.7003C63.704 69.892 63.9612 70 64.2298 70H80.2456C80.5165 70 80.7758 69.8901 80.9642 69.6954L92.4542 57.8219C92.6346 57.6354 92.7355 57.386 92.7355 57.1265V48.5897C92.7355 48.0375 93.1833 47.5897 93.7355 47.5897H94.876C95.4283 47.5897 95.876 48.0375 95.876 48.5897V53.3297C95.876 53.882 96.3237 54.3297 96.876 54.3297H100C100.552 54.3297 101 53.882 101 53.3297V36.7949C101 36.2426 100.552 35.7949 100 35.7949H96.876C96.3237 35.7949 95.876 36.2426 95.876 36.7949V41.3663C95.876 41.9186 95.4283 42.3663 94.876 42.3663H93.7355C93.1833 42.3663 92.7355 41.9186 92.7355 41.3663V33.5934C92.7355 33.0411 92.2878 32.5934 91.7355 32.5934H81.6694C81.1171 32.5934 80.6694 32.1457 80.6694 31.5934V30.2234C80.6694 29.6712 81.1171 29.2234 81.6694 29.2234H86.1157C86.668 29.2234 87.1157 28.7757 87.1157 28.2234V25C87.1157 24.4477 86.668 24 86.1157 24H69.9339C69.3816 24 68.9339 24.4477 68.9339 25V28.2234C68.9339 28.7757 69.3816 29.2234 69.9339 29.2234H74.3802C74.9324 29.2234 75.3802 29.6712 75.3802 30.2234V31.5934C75.3802 32.1457 74.9324 32.5934 74.3802 32.5934H64.236C63.9638 32.5934 63.7033 32.7044 63.5148 32.9007L56.3365 40.374C56.1479 40.5704 55.8875 40.6813 55.6153 40.6813H50.595C50.0428 40.6813 49.595 41.129 49.595 41.6813V47.6007C49.595 48.153 49.1473 48.6007 48.595 48.6007H46.7934C46.2411 48.6007 45.7934 48.153 45.7934 47.6007V41.6813C45.7934 41.129 45.3457 40.6813 44.7934 40.6813H42C41.4477 40.6813 41 41.129 41 41.6813Z" fill="white"/>
</svg>
