<svg width="142" height="153" viewBox="0 0 142 153" fill="none" xmlns="http://www.w3.org/2000/svg">
<path d="M56 55C56 70.464 43.464 83 28 83C12.536 83 0 70.464 0 55C0 39.536 12.536 27 28 27C43.464 27 56 39.536 56 55Z" fill="#1AA0ED"/>
<path d="M97 36C97 55.8823 80.8822 72 61 72C41.1177 72 25 55.8823 25 36C25 16.1177 41.1177 0 61 0C80.8822 0 97 16.1177 97 36Z" fill="#1AA0ED"/>
<path d="M122 31C122 44.2548 111.255 55 98 55C84.7452 55 74 44.2548 74 31C74 17.7452 84.7452 7 98 7C111.255 7 122 17.7452 122 31Z" fill="#1AA0ED"/>
<path d="M142 55C142 70.464 129.464 83 114 83C98.536 83 86 70.464 86 55C86 39.536 98.536 27 114 27C129.464 27 142 39.536 142 55Z" fill="#1AA0ED"/>
<path d="M26 55H115V83H26V55Z" fill="#1AA0ED"/>
<path d="M51 44.2418V56.3223C51 56.8746 51.4477 57.3223 52 57.3223H53.1956C53.7479 57.3223 54.1956 56.8746 54.1956 56.3223V53.0989C54.1956 52.5466 54.6433 52.0989 55.1956 52.0989H55.73C56.2823 52.0989 56.73 52.5466 56.73 53.0989V56.663C56.73 57.2153 57.1777 57.663 57.73 57.663H60.6045C60.8749 57.663 61.1338 57.7725 61.3222 57.9666L65.912 62.6964C66.1003 62.8905 66.3592 63 66.6296 63H77.0192C77.292 63 77.553 62.8886 77.7416 62.6915L85.2127 54.8871C85.3909 54.701 85.4904 54.4532 85.4904 54.1956V48.8974C85.4904 48.3452 85.9381 47.8974 86.4904 47.8974H86.584C87.1363 47.8974 87.584 48.3451 87.584 48.8974V51.4396C87.584 51.9918 88.0317 52.4396 88.584 52.4396H90C90.5523 52.4396 91 51.9918 91 51.4396V40.9487C91 40.3964 90.5523 39.9487 90 39.9487H88.584C88.0317 39.9487 87.584 40.3964 87.584 40.9487V43.3773C87.584 43.9296 87.1363 44.3773 86.584 44.3773H86.4904C85.9381 44.3773 85.4904 43.9296 85.4904 43.3773V38.7912C85.4904 38.2389 85.0426 37.7912 84.4904 37.7912H78.4463C77.894 37.7912 77.4463 37.3435 77.4463 36.7912V36.5201C77.4463 35.9679 77.894 35.5201 78.4463 35.5201H80.7438C81.2961 35.5201 81.7438 35.0724 81.7438 34.5201V33C81.7438 32.4477 81.2961 32 80.7438 32H70.6226C70.0703 32 69.6226 32.4477 69.6226 33V34.5201C69.6226 35.0724 70.0703 35.5201 70.6226 35.5201H72.9201C73.4724 35.5201 73.9201 35.9679 73.9201 36.5201V36.7912C73.9201 37.3435 73.4724 37.7912 72.9201 37.7912H66.6359C66.3618 37.7912 66.0997 37.9037 65.9109 38.1024L61.3232 42.9306C61.1344 43.1293 60.8724 43.2418 60.5983 43.2418H57.73C57.1777 43.2418 56.73 43.6895 56.73 44.2418V47.5788C56.73 48.131 56.2823 48.5788 55.73 48.5788H55.1956C54.6433 48.5788 54.1956 48.131 54.1956 47.5788V44.2418C54.1956 43.6895 53.7479 43.2418 53.1956 43.2418H52C51.4477 43.2418 51 43.6895 51 44.2418Z" fill="white"/>
<path d="M37.873 114.652C37.7978 115.834 37.54 116.897 37.0996 117.843C36.6699 118.788 36.0898 119.594 35.3594 120.26C34.6289 120.926 33.7588 121.441 32.749 121.807C31.7392 122.161 30.6221 122.338 29.3974 122.338C28.0117 122.338 26.7817 122.086 25.7075 121.581C24.6333 121.065 23.7309 120.351 23.0005 119.438C22.27 118.514 21.7114 117.408 21.3247 116.119C20.938 114.83 20.7446 113.412 20.7446 111.865V108.707C20.7446 107.149 20.9487 105.726 21.3569 104.437C21.7651 103.147 22.3452 102.041 23.0971 101.117C23.8491 100.193 24.7568 99.479 25.8203 98.9741C26.8945 98.4585 28.0976 98.2007 29.4297 98.2007C30.7187 98.2007 31.8628 98.3833 32.8618 98.7485C33.8716 99.1138 34.7309 99.6348 35.4399 100.312C36.1489 100.988 36.7075 101.815 37.1157 102.793C37.5239 103.771 37.7817 104.872 37.8891 106.096H33.3774C33.3345 105.398 33.227 104.786 33.0552 104.259C32.894 103.733 32.6523 103.298 32.3301 102.954C32.0185 102.6 31.6211 102.336 31.1377 102.165C30.665 101.982 30.0957 101.891 29.4297 101.891C28.7314 101.891 28.1245 102.041 27.6089 102.342C27.0932 102.643 26.6636 103.083 26.3198 103.663C25.9868 104.243 25.7397 104.958 25.5786 105.806C25.4175 106.644 25.3369 107.6 25.3369 108.674V111.865C25.3369 114.174 25.6592 115.882 26.3037 116.989C26.959 118.095 27.9902 118.648 29.3974 118.648C30.5791 118.648 31.5137 118.337 32.2012 117.714C32.8887 117.08 33.27 116.06 33.3452 114.652H37.873ZM47.2419 118.342H58.2312V122H42.698V98.5391H47.2419V118.342ZM79.5723 111.994C79.5723 113.498 79.3735 114.883 78.9761 116.151C78.5786 117.418 78.0039 118.509 77.252 119.422C76.5 120.335 75.5815 121.049 74.4966 121.565C73.4224 122.07 72.2085 122.322 70.855 122.322C69.5015 122.322 68.2983 122.07 67.2456 121.565C66.1929 121.049 65.3066 120.335 64.5869 119.422C63.8672 118.498 63.3193 117.408 62.9434 116.151C62.5674 114.883 62.3794 113.498 62.3794 111.994V108.578C62.3794 107.074 62.5674 105.688 62.9434 104.42C63.3193 103.153 63.8672 102.062 64.5869 101.149C65.3066 100.226 66.1875 99.5059 67.2295 98.9902C68.2822 98.4746 69.4854 98.2168 70.8389 98.2168C72.2031 98.2168 73.4224 98.4746 74.4966 98.9902C75.5815 99.5059 76.5 100.226 77.252 101.149C78.0039 102.062 78.5786 103.153 78.9761 104.42C79.3735 105.688 79.5723 107.074 79.5723 108.578V111.994ZM74.98 108.545C74.98 107.589 74.8994 106.708 74.7383 105.903C74.5879 105.097 74.3462 104.404 74.0132 103.824C73.6802 103.244 73.2505 102.793 72.7241 102.471C72.2085 102.138 71.5801 101.971 70.8389 101.971C70.1084 101.971 69.4961 102.138 69.002 102.471C68.5078 102.793 68.1104 103.244 67.8096 103.824C67.5088 104.404 67.2939 105.097 67.165 105.903C67.0361 106.708 66.9717 107.589 66.9717 108.545V111.994C66.9717 112.939 67.0361 113.814 67.165 114.62C67.2939 115.426 67.5088 116.124 67.8096 116.715C68.1104 117.306 68.5078 117.768 69.002 118.101C69.4961 118.434 70.1138 118.6 70.855 118.6C71.5854 118.6 72.2085 118.434 72.7241 118.101C73.2505 117.768 73.6748 117.311 73.9971 116.731C74.3301 116.14 74.5771 115.442 74.7383 114.636C74.8994 113.831 74.98 112.95 74.98 111.994V108.545ZM99.6404 98.5391L99.6565 114.088C99.6565 115.399 99.4739 116.564 99.1087 117.585C98.7542 118.605 98.2332 119.47 97.5457 120.179C96.8689 120.877 96.0364 121.409 95.0481 121.774C94.0706 122.14 92.9534 122.322 91.6965 122.322C90.5149 122.322 89.4461 122.14 88.49 121.774C87.5447 121.409 86.7337 120.877 86.0569 120.179C85.3801 119.481 84.8538 118.622 84.4778 117.601C84.1126 116.57 83.9299 115.399 83.9299 114.088L83.9461 98.5391H88.4739L88.49 114.088C88.5007 115.603 88.7747 116.747 89.3118 117.521C89.8596 118.294 90.6546 118.681 91.6965 118.681C92.803 118.681 93.6463 118.294 94.2263 117.521C94.8172 116.747 95.1179 115.603 95.1287 114.088L95.1448 98.5391H99.6404ZM104.723 122V98.5391H110.798C112.355 98.5391 113.763 98.8076 115.02 99.3447C116.287 99.8711 117.367 100.612 118.258 101.568C119.161 102.514 119.854 103.647 120.337 104.968C120.831 106.29 121.078 107.74 121.078 109.319V111.252C121.078 112.832 120.831 114.282 120.337 115.603C119.854 116.914 119.171 118.047 118.291 119.003C117.41 119.948 116.352 120.684 115.116 121.21C113.881 121.737 112.517 122 111.023 122H104.723ZM109.283 102.213V118.358H111.023C111.872 118.358 112.629 118.197 113.295 117.875C113.972 117.553 114.542 117.085 115.003 116.473C115.476 115.861 115.836 115.12 116.083 114.25C116.33 113.369 116.454 112.37 116.454 111.252V109.287C116.454 108.234 116.33 107.278 116.083 106.418C115.847 105.548 115.487 104.802 115.003 104.179C114.531 103.556 113.94 103.072 113.231 102.729C112.533 102.385 111.722 102.213 110.798 102.213H109.283Z" fill="white"/>
<path d="M40.3262 148.195C39.5905 148.195 38.9199 148.059 38.3145 147.785C37.709 147.512 37.1882 147.141 36.752 146.672C36.3223 146.203 35.987 145.656 35.7461 145.031C35.5117 144.4 35.3913 143.729 35.3848 143.02V142.6C35.3913 141.844 35.515 141.141 35.7559 140.49C36.0033 139.839 36.3385 139.273 36.7617 138.791C37.1849 138.309 37.6829 137.932 38.2559 137.658C38.8288 137.378 39.444 137.238 40.1016 137.238C40.8047 137.238 41.4264 137.365 41.9668 137.619C42.5072 137.873 42.9596 138.221 43.3242 138.664C43.6953 139.1 43.9753 139.611 44.1641 140.197C44.3594 140.783 44.4603 141.411 44.4668 142.082V142.795H36.5566V143.02C36.5632 143.573 36.6576 144.104 36.8398 144.611C37.0221 145.113 37.2793 145.555 37.6113 145.939C37.9434 146.324 38.3438 146.633 38.8125 146.867C39.2812 147.095 39.8021 147.209 40.375 147.209C41.026 147.215 41.6152 147.095 42.1426 146.848C42.6699 146.6 43.1191 146.242 43.4902 145.773L44.2324 146.33C44.0371 146.604 43.806 146.857 43.5391 147.092C43.2721 147.32 42.9727 147.515 42.6406 147.678C42.3151 147.84 41.957 147.967 41.5664 148.059C41.1758 148.15 40.7624 148.195 40.3262 148.195ZM40.1016 138.234C39.6263 138.234 39.1901 138.326 38.793 138.508C38.3958 138.684 38.0475 138.931 37.748 139.25C37.4486 139.569 37.2012 139.947 37.0059 140.383C36.8105 140.812 36.6771 141.285 36.6055 141.799H43.2949V141.672C43.2819 141.236 43.2005 140.812 43.0508 140.402C42.9076 139.986 42.6992 139.618 42.4258 139.299C42.1589 138.98 41.8301 138.723 41.4395 138.527C41.0488 138.332 40.6029 138.234 40.1016 138.234ZM49.5004 137.434L49.5883 139.416C49.9594 138.758 50.4542 138.234 51.0727 137.844C51.6911 137.447 52.3943 137.245 53.182 137.238C54.3409 137.238 55.2263 137.587 55.8383 138.283C56.4503 138.973 56.7595 139.956 56.766 141.232V148H55.5941V141.252C55.5876 140.282 55.3663 139.54 54.9301 139.025C54.4939 138.505 53.8168 138.247 52.8988 138.254C52.5212 138.254 52.1599 138.316 51.8148 138.439C51.4763 138.563 51.1638 138.732 50.8773 138.947C50.5974 139.162 50.3467 139.416 50.1254 139.709C49.9105 140.002 49.7348 140.321 49.598 140.666V148H48.4262V137.434H49.5004ZM60.7059 142.619C60.7059 141.916 60.7905 141.242 60.9598 140.598C61.129 139.947 61.3862 139.374 61.7313 138.879C62.0828 138.378 62.519 137.98 63.0398 137.688C63.5672 137.388 64.1889 137.238 64.9051 137.238C65.5822 137.238 66.1876 137.385 66.7215 137.678C67.2618 137.964 67.7111 138.371 68.0691 138.898L68.118 137.434H69.2117V147.814C69.2052 148.459 69.1043 149.051 68.909 149.592C68.7137 150.132 68.4305 150.594 68.0594 150.979C67.6948 151.369 67.2521 151.672 66.7313 151.887C66.2104 152.102 65.6245 152.209 64.9734 152.209C64.6609 152.209 64.3354 152.173 63.9969 152.102C63.6583 152.03 63.3263 151.919 63.0008 151.77C62.6753 151.62 62.3628 151.431 62.0633 151.203C61.7703 150.982 61.5132 150.715 61.2918 150.402L61.9461 149.699C62.7859 150.715 63.769 151.223 64.8953 151.223C65.3966 151.223 65.8426 151.141 66.2332 150.979C66.6238 150.816 66.9493 150.585 67.2098 150.285C67.4767 149.992 67.6785 149.637 67.8152 149.221C67.9585 148.811 68.0333 148.358 68.0398 147.863V146.662C67.6688 147.157 67.213 147.538 66.6727 147.805C66.1388 148.065 65.5431 148.195 64.8855 148.195C64.1824 148.195 63.5672 148.046 63.0398 147.746C62.519 147.44 62.0861 147.04 61.741 146.545C61.396 146.044 61.1355 145.471 60.9598 144.826C60.7905 144.175 60.7059 143.508 60.7059 142.824V142.619ZM61.8777 142.824C61.8777 143.352 61.9331 143.876 62.0438 144.396C62.1609 144.917 62.3465 145.386 62.6004 145.803C62.8543 146.213 63.1863 146.545 63.5965 146.799C64.0066 147.053 64.5079 147.18 65.1004 147.18C65.4324 147.18 65.7482 147.137 66.0477 147.053C66.3471 146.962 66.6206 146.835 66.868 146.672C67.1219 146.509 67.3465 146.314 67.5418 146.086C67.7436 145.852 67.9096 145.591 68.0398 145.305V140.275C67.9096 139.982 67.7501 139.712 67.5613 139.465C67.3725 139.217 67.1544 139.006 66.907 138.83C66.6596 138.648 66.3862 138.508 66.0867 138.41C65.7872 138.306 65.465 138.254 65.1199 138.254C64.521 138.254 64.0164 138.384 63.6063 138.645C63.1961 138.898 62.8608 139.234 62.6004 139.65C62.3465 140.061 62.1609 140.526 62.0438 141.047C61.9331 141.568 61.8777 142.092 61.8777 142.619V142.824ZM73.923 137.434H78.8254V146.965H82.4191V148H73.923V146.965H77.6535V138.479H73.923V137.434ZM77.3117 134.543C77.3117 134.302 77.3801 134.094 77.5168 133.918C77.6535 133.742 77.8814 133.654 78.2004 133.654C78.5129 133.654 78.7375 133.742 78.8742 133.918C79.0174 134.094 79.0891 134.302 79.0891 134.543C79.0891 134.771 79.0174 134.973 78.8742 135.148C78.7375 135.318 78.5129 135.402 78.2004 135.402C77.8814 135.402 77.6535 135.318 77.5168 135.148C77.3801 134.973 77.3117 134.771 77.3117 134.543ZM87.3355 137.434L87.4234 139.416C87.7945 138.758 88.2893 138.234 88.9078 137.844C89.5263 137.447 90.2294 137.245 91.0172 137.238C92.176 137.238 93.0615 137.587 93.6734 138.283C94.2854 138.973 94.5947 139.956 94.6012 141.232V148H93.4293V141.252C93.4228 140.282 93.2014 139.54 92.7652 139.025C92.329 138.505 91.652 138.247 90.734 138.254C90.3564 138.254 89.9951 138.316 89.65 138.439C89.3115 138.563 88.999 138.732 88.7125 138.947C88.4326 139.162 88.1819 139.416 87.9605 139.709C87.7457 140.002 87.5699 140.321 87.4332 140.666V148H86.2613V137.434H87.3355ZM103.385 148.195C102.649 148.195 101.979 148.059 101.373 147.785C100.768 147.512 100.247 147.141 99.8105 146.672C99.3809 146.203 99.0456 145.656 98.8047 145.031C98.5703 144.4 98.4499 143.729 98.4434 143.02V142.6C98.4499 141.844 98.5736 141.141 98.8145 140.49C99.0618 139.839 99.3971 139.273 99.8203 138.791C100.243 138.309 100.742 137.932 101.314 137.658C101.887 137.378 102.503 137.238 103.16 137.238C103.863 137.238 104.485 137.365 105.025 137.619C105.566 137.873 106.018 138.221 106.383 138.664C106.754 139.1 107.034 139.611 107.223 140.197C107.418 140.783 107.519 141.411 107.525 142.082V142.795H99.6152V143.02C99.6217 143.573 99.7161 144.104 99.8984 144.611C100.081 145.113 100.338 145.555 100.67 145.939C101.002 146.324 101.402 146.633 101.871 146.867C102.34 147.095 102.861 147.209 103.434 147.209C104.085 147.215 104.674 147.095 105.201 146.848C105.729 146.6 106.178 146.242 106.549 145.773L107.291 146.33C107.096 146.604 106.865 146.857 106.598 147.092C106.331 147.32 106.031 147.515 105.699 147.678C105.374 147.84 105.016 147.967 104.625 148.059C104.234 148.15 103.821 148.195 103.385 148.195ZM103.16 138.234C102.685 138.234 102.249 138.326 101.852 138.508C101.454 138.684 101.106 138.931 100.807 139.25C100.507 139.569 100.26 139.947 100.064 140.383C99.8691 140.812 99.7357 141.285 99.6641 141.799H106.354V141.672C106.34 141.236 106.259 140.812 106.109 140.402C105.966 139.986 105.758 139.618 105.484 139.299C105.217 138.98 104.889 138.723 104.498 138.527C104.107 138.332 103.661 138.234 103.16 138.234Z" fill="#AFBDCC"/>
</svg>
