<svg width="36" height="61" viewBox="0 0 36 61" fill="none" xmlns="http://www.w3.org/2000/svg">
    <path d="M23.8554 36.9437C30.5627 36.9437 36 42.3289 36 48.9718C36 55.6148 30.5627 61 23.8554 61C17.1482 61 11.7108 55.6148 11.7108 48.9718C11.7108 42.3289 17.1482 36.9437 23.8554 36.9437Z" fill="#1AA0ED"/>
    <path d="M15.6145 19.331C24.2381 19.331 31.2289 26.2548 31.2289 34.7958C31.2289 43.3367 24.2381 50.2606 15.6145 50.2606C6.99083 50.2606 0 43.3367 0 34.7958C0 26.2548 6.99083 19.331 15.6145 19.331Z" fill="#1AA0ED"/>
    <path d="M13.4458 8.59155C19.1949 8.59155 23.8554 13.2074 23.8554 18.9014C23.8554 24.5954 19.1949 29.2113 13.4458 29.2113C7.6967 29.2113 3.03614 24.5954 3.03614 18.9014C3.03614 13.2074 7.6967 8.59155 13.4458 8.59155Z" fill="#1AA0ED"/>
    <path d="M23.8554 0C30.5627 0 36 5.38519 36 12.0282C36 18.6711 30.5627 24.0563 23.8554 24.0563C17.1482 24.0563 11.7108 18.6711 11.7108 12.0282C11.7108 5.38519 17.1482 0 23.8554 0Z" fill="#1AA0ED"/>
    <path d="M23.8554 49.831L23.8554 11.5986H36V49.831H23.8554Z" fill="#1AA0ED"/>
    <path d="M18.9508 38H23.203C23.5339 38 23.8022 37.7317 23.8022 37.4008C23.8022 37.0699 23.5339 36.8017 23.203 36.8017H22.2554C21.993 36.8017 21.7802 36.5889 21.7802 36.3264C21.7802 36.064 21.993 35.8512 22.2554 35.8512H22.9341C23.4864 35.8512 23.9341 35.4035 23.9341 34.8512V34.6721C23.9341 34.3962 24.0481 34.1325 24.2491 33.9435L25.6849 32.5937C25.886 32.4047 26 32.141 26 31.8651V28.5191C26 28.2408 25.884 27.9751 25.68 27.7859L23.0349 25.3329C22.85 25.1614 22.6071 25.0661 22.3549 25.0661H20.5464C20.3296 25.0661 20.1538 24.8904 20.1538 24.6736C20.1538 24.4567 20.3296 24.281 20.5464 24.281H21.2716C21.6253 24.281 21.9121 23.9942 21.9121 23.6405C21.9121 23.2868 21.6253 23 21.2716 23H17.7174C17.3637 23 17.0769 23.2868 17.0769 23.6405C17.0769 23.9942 17.3637 24.281 17.7174 24.281H18.3986C18.6155 24.281 18.7912 24.4567 18.7912 24.6736C18.7912 24.8904 18.6155 25.0661 18.3986 25.0661H17.2418C16.6895 25.0661 16.2418 25.5138 16.2418 26.0661V27.6431C16.2418 27.8858 16.045 28.0826 15.8022 28.0826C15.5594 28.0826 15.3626 27.8858 15.3626 27.6431V27.1524C15.3626 26.7761 15.0576 26.4711 14.6813 26.4711C14.305 26.4711 14 26.7761 14 27.1524V30.3352C14 30.7115 14.305 31.0165 14.6813 31.0165C15.0576 31.0165 15.3626 30.7115 15.3626 30.3352V29.8445C15.3626 29.6018 15.5594 29.405 15.8022 29.405C16.045 29.405 16.2418 29.6018 16.2418 29.8445V31.8589C16.2418 32.1384 16.3588 32.4053 16.5645 32.5946L18.0289 33.9426C18.2346 34.1319 18.3516 34.3987 18.3516 34.6783V34.8512C18.3516 35.4035 18.7994 35.8512 19.3516 35.8512H19.9424C20.2048 35.8512 20.4176 36.064 20.4176 36.3264C20.4176 36.5889 20.2048 36.8017 19.9424 36.8017H18.9508C18.6199 36.8017 18.3516 37.0699 18.3516 37.4008C18.3516 37.7317 18.6199 38 18.9508 38Z" fill="white"/>
</svg>
