<svg width="815" height="799" viewBox="0 0 815 799" fill="none" xmlns="http://www.w3.org/2000/svg">
<g opacity="0.1">
<circle cx="586" cy="304.107" r="11.4902" fill="#AFBDCC"/>
<circle cx="631.962" cy="304.107" r="11.4902" fill="#AFBDCC"/>
<circle cx="677.921" cy="304.107" r="11.4902" fill="#AFBDCC"/>
<circle cx="723.883" cy="304.107" r="11.4902" fill="#AFBDCC"/>
<circle cx="769.844" cy="304.107" r="11.4902" fill="#AFBDCC"/>
<circle cx="815.804" cy="304.107" r="11.4902" fill="#AFBDCC"/>
<circle cx="218.314" cy="304.107" r="11.4902" fill="#AFBDCC"/>
<circle cx="264.273" cy="304.107" r="11.4902" fill="#AFBDCC"/>
<circle cx="310.235" cy="304.107" r="11.4902" fill="#AFBDCC"/>
<circle cx="356.196" cy="304.107" r="11.4902" fill="#AFBDCC"/>
<circle cx="402.156" cy="304.107" r="11.4902" fill="#AFBDCC"/>
<circle cx="448.117" cy="304.107" r="11.4902" fill="#AFBDCC"/>
<circle cx="80.4326" cy="304.107" r="11.4902" fill="#AFBDCC"/>
<circle cx="34.4707" cy="304.107" r="11.4902" fill="#AFBDCC"/>
<circle cx="126.392" cy="304.107" r="11.4902" fill="#AFBDCC"/>
<circle cx="172.353" cy="304.107" r="11.4902" fill="#AFBDCC"/>
<circle cx="608.98" cy="327.088" r="11.4902" fill="#AFBDCC"/>
<circle cx="654.941" cy="327.088" r="11.4902" fill="#AFBDCC"/>
<circle cx="700.902" cy="327.088" r="11.4902" fill="#AFBDCC"/>
<circle cx="746.863" cy="327.088" r="11.4902" fill="#AFBDCC"/>
<circle cx="792.824" cy="327.088" r="11.4902" fill="#AFBDCC"/>
<circle cx="241.293" cy="327.088" r="11.4902" fill="#AFBDCC"/>
<circle cx="287.255" cy="327.088" r="11.4902" fill="#AFBDCC"/>
<circle cx="333.216" cy="327.088" r="11.4902" fill="#AFBDCC"/>
<circle cx="379.175" cy="327.088" r="11.4902" fill="#AFBDCC"/>
<circle cx="425.137" cy="327.088" r="11.4902" fill="#AFBDCC"/>
<circle cx="517.06" cy="327.088" r="11.4902" fill="#AFBDCC"/>
<circle cx="563.018" cy="327.088" r="11.4902" fill="#AFBDCC"/>
<circle cx="103.411" cy="327.088" r="11.4902" fill="#AFBDCC"/>
<circle cx="57.4511" cy="327.088" r="11.4902" fill="#AFBDCC"/>
<circle cx="149.372" cy="327.088" r="11.4902" fill="#AFBDCC"/>
<circle cx="195.334" cy="327.088" r="11.4902" fill="#AFBDCC"/>
<circle cx="586" cy="350.068" r="11.4902" fill="#AFBDCC"/>
<circle cx="631.962" cy="350.068" r="11.4902" fill="#AFBDCC"/>
<circle cx="677.921" cy="350.068" r="11.4902" fill="#AFBDCC"/>
<circle cx="723.883" cy="350.068" r="11.4902" fill="#AFBDCC"/>
<circle cx="769.844" cy="350.068" r="11.4902" fill="#AFBDCC"/>
<circle cx="815.804" cy="350.068" r="11.4902" fill="#AFBDCC"/>
<circle cx="218.314" cy="350.068" r="11.4902" fill="#AFBDCC"/>
<circle cx="264.273" cy="350.068" r="11.4902" fill="#AFBDCC"/>
<circle cx="310.235" cy="350.068" r="11.4902" fill="#AFBDCC"/>
<circle cx="356.196" cy="350.068" r="11.4902" fill="#AFBDCC"/>
<circle cx="402.156" cy="350.068" r="11.4902" fill="#AFBDCC"/>
<circle cx="448.117" cy="350.068" r="11.4902" fill="#AFBDCC"/>
<circle cx="494.079" cy="350.068" r="11.4902" fill="#AFBDCC"/>
<circle cx="540.039" cy="350.068" r="11.4902" fill="#AFBDCC"/>
<circle cx="80.4326" cy="350.068" r="11.4902" fill="#AFBDCC"/>
<circle cx="34.4707" cy="350.068" r="11.4902" fill="#AFBDCC"/>
<circle cx="126.392" cy="350.068" r="11.4902" fill="#AFBDCC"/>
<circle cx="172.353" cy="350.068" r="11.4902" fill="#AFBDCC"/>
<circle cx="563.018" cy="373.048" r="11.4902" fill="#AFBDCC"/>
<circle cx="608.98" cy="373.048" r="11.4902" fill="#AFBDCC"/>
<circle cx="654.941" cy="373.048" r="11.4902" fill="#AFBDCC"/>
<circle cx="700.902" cy="373.048" r="11.4902" fill="#AFBDCC"/>
<circle cx="746.863" cy="373.048" r="11.4902" fill="#AFBDCC"/>
<circle cx="792.824" cy="373.048" r="11.4902" fill="#AFBDCC"/>
<circle cx="195.334" cy="373.048" r="11.4902" fill="#AFBDCC"/>
<circle cx="241.293" cy="373.048" r="11.4902" fill="#AFBDCC"/>
<circle cx="287.255" cy="373.048" r="11.4902" fill="#AFBDCC"/>
<circle cx="333.216" cy="373.048" r="11.4902" fill="#AFBDCC"/>
<circle cx="379.175" cy="373.048" r="11.4902" fill="#AFBDCC"/>
<circle cx="425.137" cy="373.048" r="11.4902" fill="#AFBDCC"/>
<circle cx="471.098" cy="373.048" r="11.4902" fill="#AFBDCC"/>
<circle cx="517.06" cy="373.048" r="11.4902" fill="#AFBDCC"/>
<circle cx="57.4511" cy="373.048" r="11.4902" fill="#AFBDCC"/>
<circle cx="11.4902" cy="373.048" r="11.4902" fill="#AFBDCC"/>
<circle cx="103.411" cy="373.048" r="11.4902" fill="#AFBDCC"/>
<circle cx="149.372" cy="373.048" r="11.4902" fill="#AFBDCC"/>
<circle cx="586" cy="396.029" r="11.4902" fill="#AFBDCC"/>
<circle cx="631.962" cy="396.029" r="11.4902" fill="#AFBDCC"/>
<circle cx="677.921" cy="396.029" r="11.4902" fill="#AFBDCC"/>
<circle cx="723.883" cy="396.029" r="11.4902" fill="#AFBDCC"/>
<circle cx="769.844" cy="396.029" r="11.4902" fill="#AFBDCC"/>
<circle cx="815.804" cy="396.029" r="11.4902" fill="#AFBDCC"/>
<circle cx="218.314" cy="396.029" r="11.4902" fill="#AFBDCC"/>
<circle cx="264.273" cy="396.029" r="11.4902" fill="#AFBDCC"/>
<circle cx="310.235" cy="396.029" r="11.4902" fill="#AFBDCC"/>
<circle cx="356.196" cy="396.029" r="11.4902" fill="#AFBDCC"/>
<circle cx="402.156" cy="396.029" r="11.4902" fill="#AFBDCC"/>
<circle cx="448.117" cy="396.029" r="11.4902" fill="#AFBDCC"/>
<circle cx="494.079" cy="396.029" r="11.4902" fill="#AFBDCC"/>
<circle cx="540.039" cy="396.029" r="11.4902" fill="#AFBDCC"/>
<circle cx="80.4326" cy="396.029" r="11.4902" fill="#AFBDCC"/>
<circle cx="34.4707" cy="396.029" r="11.4902" fill="#AFBDCC"/>
<circle cx="126.392" cy="396.029" r="11.4902" fill="#AFBDCC"/>
<circle cx="172.353" cy="396.029" r="11.4902" fill="#AFBDCC"/>
<circle cx="563.018" cy="419.009" r="11.4902" fill="#AFBDCC"/>
<circle cx="608.98" cy="419.009" r="11.4902" fill="#AFBDCC"/>
<circle cx="654.941" cy="419.009" r="11.4902" fill="#AFBDCC"/>
<circle cx="700.902" cy="419.009" r="11.4902" fill="#AFBDCC"/>
<circle cx="746.863" cy="419.009" r="11.4902" fill="#AFBDCC"/>
<circle cx="792.824" cy="419.009" r="11.4902" fill="#AFBDCC"/>
<circle cx="195.334" cy="419.009" r="11.4902" fill="#AFBDCC"/>
<circle cx="241.293" cy="419.009" r="11.4902" fill="#AFBDCC"/>
<circle cx="287.254" cy="419.009" r="8.42614" fill="#AFBDCC"/>
<circle cx="379.178" cy="419.009" r="8.42614" fill="#AFBDCC"/>
<circle cx="425.137" cy="419.009" r="11.4902" fill="#AFBDCC"/>
<circle cx="471.098" cy="419.009" r="11.4902" fill="#AFBDCC"/>
<circle cx="517.06" cy="419.009" r="11.4902" fill="#AFBDCC"/>
<circle cx="57.4511" cy="419.009" r="11.4902" fill="#AFBDCC"/>
<circle cx="11.4902" cy="419.009" r="11.4902" fill="#AFBDCC"/>
<circle cx="103.411" cy="419.009" r="11.4902" fill="#AFBDCC"/>
<circle cx="149.372" cy="419.009" r="11.4902" fill="#AFBDCC"/>
<circle cx="586" cy="441.99" r="11.4902" fill="#AFBDCC"/>
<circle cx="631.962" cy="441.99" r="11.4902" fill="#AFBDCC"/>
<circle cx="677.921" cy="441.99" r="11.4902" fill="#AFBDCC"/>
<circle cx="723.883" cy="441.99" r="11.4902" fill="#AFBDCC"/>
<circle cx="769.844" cy="441.99" r="11.4902" fill="#AFBDCC"/>
<circle cx="815.804" cy="441.99" r="11.4902" fill="#AFBDCC"/>
<circle cx="218.314" cy="441.99" r="11.4902" fill="#AFBDCC"/>
<circle cx="402.156" cy="441.99" r="5.36209" fill="#AFBDCC"/>
<circle cx="448.117" cy="441.99" r="11.4902" fill="#AFBDCC"/>
<circle cx="494.079" cy="441.99" r="11.4902" fill="#AFBDCC"/>
<circle cx="540.039" cy="441.99" r="11.4902" fill="#AFBDCC"/>
<circle cx="608.98" cy="464.97" r="11.4902" fill="#AFBDCC"/>
<circle cx="654.941" cy="464.97" r="11.4902" fill="#AFBDCC"/>
<circle cx="700.902" cy="464.97" r="11.4902" fill="#AFBDCC"/>
<circle cx="746.863" cy="464.97" r="11.4902" fill="#AFBDCC"/>
<circle cx="792.824" cy="464.97" r="11.4902" fill="#AFBDCC"/>
<circle cx="471.098" cy="464.97" r="11.4902" fill="#AFBDCC"/>
<circle cx="517.06" cy="464.97" r="11.4902" fill="#AFBDCC"/>
<circle cx="563.018" cy="464.97" r="11.4902" fill="#AFBDCC"/>
<circle cx="631.962" cy="487.95" r="11.4902" fill="#AFBDCC"/>
<circle cx="677.921" cy="487.95" r="11.4902" fill="#AFBDCC"/>
<circle cx="723.883" cy="487.95" r="11.4902" fill="#AFBDCC"/>
<circle cx="769.844" cy="487.95" r="11.4902" fill="#AFBDCC"/>
<circle cx="815.804" cy="487.95" r="11.4902" fill="#AFBDCC"/>
<circle cx="494.079" cy="487.95" r="11.4902" fill="#AFBDCC"/>
<circle cx="540.039" cy="487.95" r="11.4902" fill="#AFBDCC"/>
<circle cx="586" cy="487.95" r="11.4902" fill="#AFBDCC"/>
<circle cx="608.98" cy="510.931" r="11.4902" fill="#AFBDCC"/>
<circle cx="654.941" cy="510.931" r="11.4902" fill="#AFBDCC"/>
<circle cx="700.902" cy="510.931" r="11.4902" fill="#AFBDCC"/>
<circle cx="746.863" cy="510.931" r="11.4902" fill="#AFBDCC"/>
<circle cx="792.824" cy="510.931" r="11.4902" fill="#AFBDCC"/>
<circle cx="471.098" cy="510.931" r="11.4902" fill="#AFBDCC"/>
<circle cx="471.098" cy="648.813" r="11.4902" fill="#AFBDCC"/>
<circle cx="423.606" cy="648.813" r="5.36209" fill="#AFBDCC"/>
<circle cx="471.098" cy="694.774" r="11.4902" fill="#AFBDCC"/>
<circle cx="425.137" cy="694.774" r="11.4902" fill="#AFBDCC"/>
<circle cx="517.06" cy="510.931" r="11.4902" fill="#AFBDCC"/>
<circle cx="563.018" cy="510.931" r="11.4902" fill="#AFBDCC"/>
<circle cx="631.962" cy="533.911" r="11.4902" fill="#AFBDCC"/>
<circle cx="677.921" cy="533.911" r="11.4902" fill="#AFBDCC"/>
<circle cx="723.883" cy="533.911" r="11.4902" fill="#AFBDCC"/>
<circle cx="769.844" cy="533.911" r="11.4902" fill="#AFBDCC"/>
<circle cx="815.804" cy="533.911" r="11.4902" fill="#AFBDCC"/>
<circle cx="494.079" cy="533.911" r="11.4902" fill="#AFBDCC"/>
<circle cx="494.079" cy="625.833" r="11.4902" fill="#AFBDCC"/>
<circle cx="448.117" cy="625.833" r="11.4902" fill="#AFBDCC"/>
<circle cx="448.117" cy="671.793" r="11.4902" fill="#AFBDCC"/>
<circle cx="494.079" cy="671.793" r="8.42614" fill="#AFBDCC"/>
<circle cx="540.041" cy="533.911" r="11.4902" fill="#AFBDCC"/>
<circle cx="586.002" cy="533.911" r="11.4902" fill="#AFBDCC"/>
<circle cx="654.942" cy="556.891" r="11.4902" fill="#AFBDCC"/>
<circle cx="700.903" cy="556.891" r="11.4902" fill="#AFBDCC"/>
<circle cx="746.865" cy="556.891" r="11.4902" fill="#AFBDCC"/>
<circle cx="792.824" cy="556.891" r="11.4902" fill="#AFBDCC"/>
<circle cx="517.06" cy="556.891" r="11.4902" fill="#AFBDCC"/>
<circle cx="517.06" cy="602.852" r="11.4902" fill="#AFBDCC"/>
<circle cx="563.021" cy="556.891" r="11.4902" fill="#AFBDCC"/>
<circle cx="563.022" cy="602.852" r="5.36209" fill="#AFBDCC"/>
<circle cx="608.981" cy="556.891" r="11.4902" fill="#AFBDCC"/>
<circle cx="677.923" cy="579.872" r="11.4902" fill="#AFBDCC"/>
<circle cx="723.885" cy="579.872" r="11.4902" fill="#AFBDCC"/>
<circle cx="769.844" cy="579.872" r="11.4902" fill="#AFBDCC"/>
<circle cx="815.806" cy="579.872" r="11.4902" fill="#AFBDCC"/>
<circle cx="540.041" cy="579.872" r="11.4902" fill="#AFBDCC"/>
<circle cx="540.04" cy="625.833" r="8.42614" fill="#AFBDCC"/>
<circle cx="586.002" cy="579.872" r="11.4902" fill="#AFBDCC"/>
<circle cx="631.962" cy="579.872" r="11.4902" fill="#AFBDCC"/>
<circle cx="700.903" cy="602.852" r="11.4902" fill="#AFBDCC"/>
<circle cx="746.865" cy="602.852" r="11.4902" fill="#AFBDCC"/>
<circle cx="746.864" cy="648.813" r="9.95817" fill="#AFBDCC"/>
<circle cx="792.824" cy="602.852" r="11.4902" fill="#AFBDCC"/>
<circle cx="792.824" cy="648.813" r="11.4902" fill="#AFBDCC"/>
<circle cx="654.942" cy="602.852" r="11.4902" fill="#AFBDCC"/>
<circle cx="723.885" cy="625.833" r="11.4902" fill="#AFBDCC"/>
<circle cx="769.844" cy="625.833" r="11.4902" fill="#AFBDCC"/>
<circle cx="815.806" cy="625.833" r="11.4902" fill="#AFBDCC"/>
<circle cx="723.884" cy="671.793" r="8.42614" fill="#AFBDCC"/>
<circle cx="769.844" cy="671.793" r="11.4902" fill="#AFBDCC"/>
<circle cx="815.806" cy="671.793" r="11.4902" fill="#AFBDCC"/>
<circle cx="677.923" cy="625.833" r="11.4902" fill="#AFBDCC"/>
<circle cx="746.865" cy="694.774" r="11.4902" fill="#AFBDCC"/>
<circle cx="792.824" cy="694.774" r="11.4902" fill="#AFBDCC"/>
<circle cx="746.865" cy="740.735" r="8.42614" fill="#AFBDCC"/>
<circle cx="792.824" cy="740.735" r="11.4902" fill="#AFBDCC"/>
<circle cx="746.865" cy="786.695" r="11.4902" fill="#AFBDCC"/>
<circle cx="792.826" cy="786.695" r="6.89412" fill="#AFBDCC"/>
<circle cx="700.903" cy="694.774" r="11.4902" fill="#AFBDCC"/>
<circle cx="769.844" cy="717.754" r="11.4902" fill="#AFBDCC"/>
<circle cx="815.806" cy="717.754" r="11.4902" fill="#AFBDCC"/>
<circle cx="769.844" cy="763.715" r="11.4902" fill="#AFBDCC"/>
<circle cx="815.806" cy="763.715" r="8.42614" fill="#AFBDCC"/>
<circle cx="723.885" cy="717.754" r="11.4902" fill="#AFBDCC"/>
<circle cx="80.4336" cy="441.99" r="11.4902" fill="#AFBDCC"/>
<circle cx="34.4722" cy="441.99" r="6.89412" fill="#AFBDCC"/>
<circle cx="126.394" cy="441.99" r="11.4902" fill="#AFBDCC"/>
<circle cx="172.353" cy="441.99" r="11.4902" fill="#AFBDCC"/>
<circle cx="608.981" cy="281.127" r="11.4902" fill="#AFBDCC"/>
<circle cx="654.942" cy="281.127" r="11.4902" fill="#AFBDCC"/>
<circle cx="700.903" cy="281.127" r="11.4902" fill="#AFBDCC"/>
<circle cx="746.865" cy="281.127" r="11.4902" fill="#AFBDCC"/>
<circle cx="792.824" cy="281.127" r="11.4902" fill="#AFBDCC"/>
<circle cx="241.296" cy="281.127" r="11.4902" fill="#AFBDCC"/>
<circle cx="287.258" cy="281.127" r="11.4902" fill="#AFBDCC"/>
<circle cx="333.217" cy="281.127" r="11.4902" fill="#AFBDCC"/>
<circle cx="379.178" cy="281.127" r="11.4902" fill="#AFBDCC"/>
<circle cx="425.14" cy="281.127" r="11.4902" fill="#AFBDCC"/>
<circle cx="103.414" cy="281.127" r="11.4902" fill="#AFBDCC"/>
<circle cx="57.4521" cy="281.127" r="11.4902" fill="#AFBDCC"/>
<circle cx="149.375" cy="281.127" r="11.4902" fill="#AFBDCC"/>
<circle cx="195.335" cy="281.127" r="11.4902" fill="#AFBDCC"/>
<circle cx="631.962" cy="258.146" r="11.4902" fill="#AFBDCC"/>
<circle cx="677.923" cy="258.146" r="11.4902" fill="#AFBDCC"/>
<circle cx="723.885" cy="258.146" r="11.4902" fill="#AFBDCC"/>
<circle cx="769.844" cy="258.146" r="11.4902" fill="#AFBDCC"/>
<circle cx="815.806" cy="258.146" r="11.4902" fill="#AFBDCC"/>
<circle cx="264.276" cy="258.146" r="11.4902" fill="#AFBDCC"/>
<circle cx="310.238" cy="258.146" r="11.4902" fill="#AFBDCC"/>
<circle cx="356.197" cy="258.146" r="11.4902" fill="#AFBDCC"/>
<circle cx="402.159" cy="258.146" r="11.4902" fill="#AFBDCC"/>
<circle cx="448.12" cy="258.146" r="11.4902" fill="#AFBDCC"/>
<circle cx="126.394" cy="258.146" r="11.4902" fill="#AFBDCC"/>
<circle cx="80.4336" cy="258.146" r="11.4902" fill="#AFBDCC"/>
<circle cx="172.353" cy="258.146" r="11.4902" fill="#AFBDCC"/>
<circle cx="218.315" cy="258.146" r="11.4902" fill="#AFBDCC"/>
<circle cx="654.942" cy="235.166" r="11.4902" fill="#AFBDCC"/>
<circle cx="700.903" cy="235.166" r="11.4902" fill="#AFBDCC"/>
<circle cx="746.865" cy="235.166" r="11.4902" fill="#AFBDCC"/>
<circle cx="792.824" cy="235.166" r="11.4902" fill="#AFBDCC"/>
<circle cx="287.258" cy="235.166" r="11.4902" fill="#AFBDCC"/>
<circle cx="333.217" cy="235.166" r="11.4902" fill="#AFBDCC"/>
<circle cx="379.178" cy="235.166" r="11.4902" fill="#AFBDCC"/>
<circle cx="425.14" cy="235.166" r="11.4902" fill="#AFBDCC"/>
<circle cx="149.375" cy="235.166" r="11.4902" fill="#AFBDCC"/>
<circle cx="103.414" cy="235.166" r="11.4902" fill="#AFBDCC"/>
<circle cx="195.335" cy="235.166" r="11.4902" fill="#AFBDCC"/>
<circle cx="241.296" cy="235.166" r="11.4902" fill="#AFBDCC"/>
<circle cx="677.923" cy="212.186" r="11.4902" fill="#AFBDCC"/>
<circle cx="723.885" cy="212.186" r="11.4902" fill="#AFBDCC"/>
<circle cx="769.844" cy="212.186" r="11.4902" fill="#AFBDCC"/>
<circle cx="815.806" cy="212.186" r="11.4902" fill="#AFBDCC"/>
<circle cx="310.238" cy="212.186" r="11.4902" fill="#AFBDCC"/>
<circle cx="356.197" cy="212.186" r="11.4902" fill="#AFBDCC"/>
<circle cx="402.159" cy="212.186" r="11.4902" fill="#AFBDCC"/>
<circle cx="448.12" cy="212.186" r="11.4902" fill="#AFBDCC"/>
<circle cx="172.353" cy="212.186" r="11.4902" fill="#AFBDCC"/>
<circle cx="126.394" cy="212.186" r="11.4902" fill="#AFBDCC"/>
<circle cx="218.315" cy="212.186" r="11.4902" fill="#AFBDCC"/>
<circle cx="264.276" cy="212.186" r="11.4902" fill="#AFBDCC"/>
<circle cx="700.903" cy="189.205" r="11.4902" fill="#AFBDCC"/>
<circle cx="746.865" cy="189.205" r="11.4902" fill="#AFBDCC"/>
<circle cx="792.824" cy="189.205" r="11.4902" fill="#AFBDCC"/>
<circle cx="333.217" cy="189.205" r="11.4902" fill="#AFBDCC"/>
<circle cx="379.178" cy="189.205" r="11.4902" fill="#AFBDCC"/>
<circle cx="425.14" cy="189.205" r="11.4902" fill="#AFBDCC"/>
<circle cx="654.942" cy="189.205" r="11.4902" fill="#AFBDCC"/>
<circle cx="195.335" cy="189.205" r="11.4902" fill="#AFBDCC"/>
<circle cx="149.375" cy="189.205" r="11.4902" fill="#AFBDCC"/>
<circle cx="241.296" cy="189.205" r="11.4902" fill="#AFBDCC"/>
<circle cx="287.258" cy="189.205" r="11.4902" fill="#AFBDCC"/>
<circle cx="677.923" cy="166.225" r="11.4902" fill="#AFBDCC"/>
<circle cx="723.885" cy="166.225" r="11.4902" fill="#AFBDCC"/>
<circle cx="769.844" cy="166.225" r="11.4902" fill="#AFBDCC"/>
<circle cx="815.806" cy="166.225" r="11.4902" fill="#AFBDCC"/>
<circle cx="310.238" cy="166.225" r="11.4902" fill="#AFBDCC"/>
<circle cx="356.197" cy="166.225" r="11.4902" fill="#AFBDCC"/>
<circle cx="402.159" cy="166.225" r="11.4902" fill="#AFBDCC"/>
<circle cx="448.12" cy="166.225" r="11.4902" fill="#AFBDCC"/>
<circle cx="586.002" cy="166.225" r="11.4902" fill="#AFBDCC"/>
<circle cx="631.962" cy="166.225" r="11.4902" fill="#AFBDCC"/>
<circle cx="172.353" cy="166.225" r="11.4902" fill="#AFBDCC"/>
<circle cx="126.394" cy="166.225" r="11.4902" fill="#AFBDCC"/>
<circle cx="218.315" cy="166.225" r="11.4902" fill="#AFBDCC"/>
<circle cx="264.276" cy="166.225" r="11.4902" fill="#AFBDCC"/>
<circle cx="700.903" cy="143.244" r="11.4902" fill="#AFBDCC"/>
<circle cx="746.865" cy="143.244" r="11.4902" fill="#AFBDCC"/>
<circle cx="792.824" cy="143.244" r="11.4902" fill="#AFBDCC"/>
<circle cx="333.217" cy="143.244" r="11.4902" fill="#AFBDCC"/>
<circle cx="379.178" cy="143.244" r="11.4902" fill="#AFBDCC"/>
<circle cx="425.14" cy="143.244" r="11.4902" fill="#AFBDCC"/>
<circle cx="563.021" cy="143.244" r="11.4902" fill="#AFBDCC"/>
<circle cx="608.981" cy="143.244" r="11.4902" fill="#AFBDCC"/>
<circle cx="654.942" cy="143.244" r="11.4902" fill="#AFBDCC"/>
<circle cx="195.335" cy="143.244" r="11.4902" fill="#AFBDCC"/>
<circle cx="149.375" cy="143.244" r="11.4902" fill="#AFBDCC"/>
<circle cx="241.296" cy="143.244" r="11.4902" fill="#AFBDCC"/>
<circle cx="287.258" cy="143.244" r="11.4902" fill="#AFBDCC"/>
<circle cx="677.923" cy="120.264" r="11.4902" fill="#AFBDCC"/>
<circle cx="723.885" cy="120.264" r="11.4902" fill="#AFBDCC"/>
<circle cx="769.844" cy="120.264" r="11.4902" fill="#AFBDCC"/>
<circle cx="815.805" cy="120.264" r="5.36209" fill="#AFBDCC"/>
<circle cx="310.238" cy="120.264" r="11.4902" fill="#AFBDCC"/>
<circle cx="356.197" cy="120.264" r="11.4902" fill="#AFBDCC"/>
<circle cx="402.159" cy="120.264" r="11.4902" fill="#AFBDCC"/>
<circle cx="448.12" cy="120.264" r="11.4902" fill="#AFBDCC"/>
<circle cx="586.002" cy="120.264" r="11.4902" fill="#AFBDCC"/>
<circle cx="631.962" cy="120.264" r="11.4902" fill="#AFBDCC"/>
<circle cx="700.903" cy="97.2837" r="11.4902" fill="#AFBDCC"/>
<circle cx="746.865" cy="97.2837" r="11.4902" fill="#AFBDCC"/>
<circle cx="792.826" cy="97.2836" r="6.89412" fill="#AFBDCC"/>
<circle cx="563.021" cy="97.2837" r="11.4902" fill="#AFBDCC"/>
<circle cx="608.981" cy="97.2837" r="11.4902" fill="#AFBDCC"/>
<circle cx="654.942" cy="97.2837" r="11.4902" fill="#AFBDCC"/>
<circle cx="723.885" cy="74.3033" r="11.4902" fill="#AFBDCC"/>
<circle cx="769.844" cy="74.3033" r="11.4902" fill="#AFBDCC"/>
<circle cx="540.041" cy="74.3033" r="5.36209" fill="#AFBDCC"/>
<circle cx="586.002" cy="74.3033" r="11.4902" fill="#AFBDCC"/>
<circle cx="631.962" cy="74.3033" r="11.4902" fill="#AFBDCC"/>
<circle cx="677.923" cy="74.3033" r="11.4902" fill="#AFBDCC"/>
<circle cx="746.865" cy="51.3229" r="11.4902" fill="#AFBDCC"/>
<circle cx="563.021" cy="51.3229" r="8.42614" fill="#AFBDCC"/>
<circle cx="608.981" cy="51.3229" r="11.4902" fill="#AFBDCC"/>
<circle cx="654.942" cy="51.3229" r="11.4902" fill="#AFBDCC"/>
<circle cx="700.903" cy="51.3229" r="11.4902" fill="#AFBDCC"/>
<circle cx="631.963" cy="28.3425" r="6.89412" fill="#AFBDCC"/>
<circle cx="677.923" cy="28.3425" r="11.4902" fill="#AFBDCC"/>
<circle cx="723.885" cy="28.3425" r="11.4902" fill="#AFBDCC"/>
<circle cx="700.904" cy="5.36209" r="5.36209" fill="#AFBDCC"/>
<circle cx="172.353" cy="120.264" r="11.4902" fill="#AFBDCC"/>
<circle cx="126.394" cy="120.264" r="11.4902" fill="#AFBDCC"/>
<circle cx="218.315" cy="120.264" r="11.4902" fill="#AFBDCC"/>
<circle cx="264.276" cy="120.264" r="11.4902" fill="#AFBDCC"/>
<circle cx="287.258" cy="97.2837" r="11.4902" fill="#AFBDCC"/>
<circle cx="333.217" cy="97.2837" r="11.4902" fill="#AFBDCC"/>
<circle cx="379.178" cy="97.2837" r="11.4902" fill="#AFBDCC"/>
<circle cx="149.375" cy="97.2837" r="11.4902" fill="#AFBDCC"/>
<circle cx="103.414" cy="97.2837" r="11.4902" fill="#AFBDCC"/>
<circle cx="195.335" cy="97.2837" r="11.4902" fill="#AFBDCC"/>
<circle cx="241.296" cy="97.2837" r="11.4902" fill="#AFBDCC"/>
<circle cx="172.353" cy="74.3033" r="11.4902" fill="#AFBDCC"/>
<circle cx="218.315" cy="74.3033" r="11.4902" fill="#AFBDCC"/>
<circle cx="264.276" cy="74.3033" r="11.4902" fill="#AFBDCC"/>
<circle cx="195.334" cy="51.3229" r="8.42614" fill="#AFBDCC"/>
<circle cx="241.296" cy="51.3229" r="6.89412" fill="#AFBDCC"/>
</g>
<circle cx="494.08" cy="304.107" r="11.4902" fill="#1AA0ED"/>
<circle cx="540.04" cy="304.107" r="11.4902" fill="#1AA0ED"/>
<circle cx="471.1" cy="327.088" r="11.4902" fill="#1AA0ED"/>
<circle cx="471.1" cy="281.127" r="11.4902" fill="#1AA0ED"/>
<circle cx="517.06" cy="281.127" r="11.4902" fill="#1AA0ED"/>
<circle cx="563.022" cy="281.127" r="11.4902" fill="#1AA0ED"/>
<circle cx="494.08" cy="258.146" r="11.4902" fill="#1AA0ED"/>
<circle cx="540.042" cy="258.146" r="11.4902" fill="#1AA0ED"/>
<circle cx="586.003" cy="258.146" r="11.4902" fill="#1AA0ED"/>
<circle cx="471.1" cy="235.166" r="11.4902" fill="#1AA0ED"/>
<circle cx="517.06" cy="235.166" r="11.4902" fill="#1AA0ED"/>
<circle cx="563.022" cy="235.166" r="11.4902" fill="#1AA0ED"/>
<circle cx="608.981" cy="235.166" r="11.4902" fill="#1AA0ED"/>
<circle cx="494.08" cy="212.186" r="11.4902" fill="#1AA0ED"/>
<circle cx="540.042" cy="212.186" r="11.4902" fill="#1AA0ED"/>
<circle cx="586.003" cy="212.186" r="11.4902" fill="#1AA0ED"/>
<circle cx="631.963" cy="212.186" r="11.4902" fill="#1AA0ED"/>
<circle cx="471.1" cy="189.205" r="11.4902" fill="#1AA0ED"/>
<circle cx="517.06" cy="189.205" r="11.4902" fill="#1AA0ED"/>
<circle cx="563.022" cy="189.205" r="11.4902" fill="#1AA0ED"/>
<circle cx="608.981" cy="189.205" r="11.4902" fill="#1AA0ED"/>
<circle cx="494.08" cy="166.225" r="11.4902" fill="#1AA0ED"/>
<circle cx="540.042" cy="166.225" r="11.4902" fill="#1AA0ED"/>
<circle cx="471.1" cy="143.244" r="11.4902" fill="#1AA0ED"/>
<circle cx="517.06" cy="143.244" r="11.4902" fill="#1AA0ED"/>
<circle cx="494.08" cy="120.264" r="11.4902" fill="#1AA0ED"/>
<circle cx="540.042" cy="120.264" r="11.4902" fill="#1AA0ED"/>
</svg>
